<svg width="28" height="28" viewBox="0 0 28 28" fill="none" xmlns="http://www.w3.org/2000/svg">
<g clip-path="url(#clip0)">
<path d="M26.6033 24.1672H7.87986C7.10818 24.1672 6.48273 23.5417 6.48273 22.77C6.48273 21.9984 7.10818 21.3729 7.87986 21.3729H26.6029C27.3746 21.3729 28 21.9984 28 22.77C28 23.5417 27.375 24.1672 26.6033 24.1672Z" fill="white"/>
<path d="M26.6033 15.3974H7.87986C7.10818 15.3974 6.48273 14.7719 6.48273 14.0002C6.48273 13.2285 7.10818 12.6031 7.87986 12.6031H26.6029C27.3746 12.6031 28 13.2285 28 14.0002C28.0005 14.7719 27.375 15.3974 26.6033 15.3974Z" fill="white"/>
<path d="M26.6033 6.62754H7.87986C7.10818 6.62754 6.48273 6.00209 6.48273 5.2304C6.48273 4.45872 7.10818 3.83327 7.87986 3.83327H26.6029C27.3746 3.83327 28 4.45872 28 5.2304C28 6.00209 27.375 6.62754 26.6033 6.62754Z" fill="white"/>
<path d="M1.87635 7.2148C2.91264 7.2148 3.75271 6.37473 3.75271 5.33845C3.75271 4.30217 2.91264 3.4621 1.87635 3.4621C0.840072 3.4621 0 4.30217 0 5.33845C0 6.37473 0.840072 7.2148 1.87635 7.2148Z" fill="white"/>
<path d="M1.87635 15.8766C2.91264 15.8766 3.75271 15.0365 3.75271 14.0002C3.75271 12.9639 2.91264 12.1239 1.87635 12.1239C0.840072 12.1239 0 12.9639 0 14.0002C0 15.0365 0.840072 15.8766 1.87635 15.8766Z" fill="white"/>
<path d="M1.87635 24.5384C2.91264 24.5384 3.75271 23.6983 3.75271 22.662C3.75271 21.6257 2.91264 20.7856 1.87635 20.7856C0.840072 20.7856 0 21.6257 0 22.662C0 23.6983 0.840072 24.5384 1.87635 24.5384Z" fill="white"/>
</g>
<defs>
<clipPath id="clip0">
<rect width="28" height="28" fill="white"/>
</clipPath>
</defs>
</svg>
