<svg width="24" height="24" viewBox="0 0 24 24" fill="none" xmlns="http://www.w3.org/2000/svg">
<path d="M10.154 3.23071C9.90413 3.23071 9.68776 3.32225 9.50499 3.50482L4.70208 8.30778H0.92326C0.673096 8.30778 0.45678 8.39932 0.274108 8.58179C0.0913863 8.76446 0 8.98093 0 9.23089V14.7691C0 15.0191 0.0913863 15.2356 0.274108 15.4182C0.456932 15.6009 0.673298 15.6923 0.92326 15.6923H4.70187L9.50478 20.4955C9.68751 20.6778 9.90387 20.7695 10.1538 20.7695C10.4039 20.7695 10.6203 20.6779 10.8029 20.4955C10.9857 20.3129 11.077 20.0963 11.077 19.8465V4.15397C11.077 3.90401 10.9857 3.68749 10.8031 3.50482C10.6203 3.32225 10.4041 3.23071 10.154 3.23071Z" fill="white"/>
<path d="M16.0023 14.0407C16.4112 13.4109 16.6153 12.7308 16.6153 12C16.6153 11.2693 16.4112 10.5859 16.0023 9.95122C15.5934 9.31662 15.053 8.86964 14.3796 8.60993C14.2835 8.56199 14.1632 8.53784 14.019 8.53784C13.7692 8.53784 13.5526 8.62685 13.37 8.80468C13.1876 8.98255 13.0958 9.20134 13.0958 9.4609C13.0958 9.66282 13.1536 9.83352 13.2692 9.973C13.3845 10.1125 13.5239 10.2328 13.6876 10.3336C13.8508 10.4346 14.0143 10.5452 14.178 10.6654C14.3416 10.7856 14.4809 10.9563 14.5962 11.1774C14.7112 11.3987 14.7693 11.6727 14.7693 11.9997C14.7693 12.3266 14.7115 12.6006 14.5962 12.8219C14.4809 13.0432 14.3416 13.2137 14.178 13.3341C14.0143 13.4543 13.8508 13.5649 13.6876 13.6659C13.5239 13.7665 13.3845 13.887 13.2692 14.0262C13.1539 14.1659 13.0958 14.3365 13.0958 14.5384C13.0958 14.7983 13.1876 15.0168 13.37 15.1946C13.5526 15.3725 13.7692 15.4618 14.019 15.4618C14.1632 15.4618 14.2835 15.4376 14.3796 15.3898C15.053 15.1201 15.5936 14.6705 16.0023 14.0407Z" fill="white"/>
<path d="M19.0817 16.0744C19.8991 14.8293 20.308 13.4711 20.308 11.9999C20.308 10.5286 19.8991 9.17067 19.0817 7.92485C18.2645 6.67984 17.1823 5.77366 15.8364 5.20624C15.7116 5.15825 15.5865 5.13416 15.4618 5.13416C15.2119 5.13416 14.9952 5.22554 14.8125 5.40826C14.6299 5.59094 14.5385 5.80725 14.5385 6.05726C14.5385 6.43231 14.726 6.71596 15.1012 6.90844C15.6395 7.18719 16.0048 7.39871 16.197 7.54289C16.9088 8.06221 17.4639 8.71353 17.8629 9.49721C18.2619 10.2809 18.4614 11.1151 18.4614 11.9997C18.4614 12.8844 18.2619 13.7185 17.8629 14.5021C17.4639 15.286 16.9084 15.9372 16.197 16.4564C16.0048 16.6007 15.6395 16.8122 15.1012 17.091C14.726 17.2834 14.5385 17.5671 14.5385 17.9421C14.5385 18.1921 14.6299 18.4087 14.8125 18.5911C14.9952 18.774 15.2161 18.8655 15.4758 18.8655C15.5913 18.8655 15.7116 18.8411 15.8364 18.7934C17.1823 18.2259 18.2645 17.3196 19.0817 16.0744Z" fill="white"/>
<path d="M22.1682 5.90652C20.9472 4.05565 19.3219 2.69249 17.293 1.81747C17.1682 1.76948 17.0431 1.74548 16.9184 1.74548C16.6684 1.74548 16.4518 1.83697 16.2694 2.01949C16.0865 2.20211 15.995 2.41868 15.995 2.66864C15.995 3.01474 16.1826 3.29855 16.5578 3.51966C16.6252 3.55785 16.7329 3.60832 16.8821 3.67101C17.0311 3.73325 17.1392 3.78372 17.2068 3.82221C17.649 4.06242 18.0433 4.30774 18.3898 4.55775C19.5722 5.43261 20.4954 6.52399 21.1589 7.83174C21.8224 9.13939 22.154 10.5288 22.154 12.0001C22.154 13.4716 21.8224 14.8607 21.1589 16.1684C20.4956 17.4762 19.5722 18.5677 18.3898 19.4424C18.0433 19.6923 17.649 19.9375 17.2068 20.178C17.1392 20.2162 17.0311 20.2665 16.8821 20.329C16.7329 20.3913 16.6252 20.4417 16.5578 20.4805C16.1826 20.7015 15.995 20.9853 15.995 21.3314C15.995 21.5814 16.0865 21.7978 16.2694 21.9805C16.4518 22.1632 16.6684 22.2546 16.9184 22.2546C17.0431 22.2546 17.1682 22.2306 17.293 22.1823C19.3219 21.3076 20.9472 19.9444 22.1682 18.0934C23.3894 16.2426 23.9999 14.2112 23.9999 11.9997C23.9999 9.78829 23.3896 7.75718 22.1682 5.90652Z" fill="white"/>
</svg>
